<svg xmlns="http://www.w3.org/2000/svg"  viewBox="0 0 100 100" width="70px" height="70px"><path d="M76.667,63.33H50C50,55.967,44.03,50,36.667,50h-20v-6.67H10v46.666h6.667v-4.297l13.532,3.379	c3.558,0.896,9.437,1.188,13.063,0.658l42.62-6.911c0.817-0.342,1.55-0.83,2.165-1.445C89.258,80.172,90,78.509,90,76.666	C90,69.3,84.03,63.33,76.667,63.33z M42.305,83.145c-2.769,0.41-7.769,0.149-10.492-0.527l-15.146-3.789V56.666h20	c3.675,0,6.667,2.992,6.667,6.664H30V70h46.667c3.613,0,6.549,2.896,6.646,6.49L42.305,83.145z"/><polygon points="73.333,31.38 53.333,51.38 39.999,38.047 44.712,33.333 53.333,41.953 68.62,26.667"/><polygon points="90,23.333 90,10 76.667,10 76.667,13.333 36.667,13.333 36.667,10 23.333,10 23.333,23.333 26.667,23.333 26.667,43.333 33.333,43.333 33.333,23.333 36.667,23.333 36.667,20 76.667,20 76.667,23.333 80,23.333 80,43.333 76.667,43.333 76.667,56.666 90,56.666 90,43.333 86.667,43.333 86.667,23.333"/></svg>